<?xml version="1.0" encoding="UTF-8"?>
<svg width="87px" height="57px" viewBox="0 0 87 57" version="1.1" xmlns="http://www.w3.org/2000/svg"
     xmlns:xlink="http://www.w3.org/1999/xlink">
  <!-- Generator: Sketch 41.2 (35397) - http://www.bohemiancoding.com/sketch -->
  <title>fuuuuuu</title>
  <desc>Created with Sketch.</desc>
  <defs>
    <linearGradient x1="50%" y1="0%" x2="50%" y2="100%" id="linearGradient-1">
      <stop stop-color="#3D2D1E" offset="0%"></stop>
      <stop stop-color="#271F18" offset="100%"></stop>
    </linearGradient>
    <linearGradient x1="50%" y1="0%" x2="50%" y2="100%" id="linearGradient-2">
      <stop stop-color="#6F4D27" offset="0%"></stop>
      <stop stop-color="#060301" offset="100%"></stop>
    </linearGradient>
    <path
        d="M2,1 C2,1 5.4466399,6.7225361 43.5,6.7225361 C81.5533601,6.7225361 85,1 85,1 C85,1 81.5533601,1 81.5533601,27.5 C81.5533601,54 85,54 85,54 C85,54 81.5533601,48.2774639 43.5,48.2774639 C5.4466399,48.2774639 2,54 2,54 C2,54 5.4466399,48.2774639 5.4466399,27.5 C5.4466399,6.7225361 2,1 2,1 Z"
        id="path-3"></path>
    <filter x="-50%" y="-50%" width="200%" height="200%" filterUnits="objectBoundingBox" id="filter-4">
      <feOffset dx="0" dy="1" in="SourceAlpha" result="shadowOffsetOuter1"></feOffset>
      <feGaussianBlur stdDeviation="1" in="shadowOffsetOuter1" result="shadowBlurOuter1"></feGaussianBlur>
      <feComposite in="shadowBlurOuter1" in2="SourceAlpha" operator="out" result="shadowBlurOuter1"></feComposite>
      <feColorMatrix values="0 0 0 0 0   0 0 0 0 0   0 0 0 0 0  0 0 0 0.5 0" type="matrix"
                     in="shadowBlurOuter1"></feColorMatrix>
    </filter>
    <mask id="mask-5" maskContentUnits="userSpaceOnUse" maskUnits="objectBoundingBox" x="0" y="0" width="83" height="53"
          fill="white">
      <use xlink:href="#path-3"></use>
    </mask>
  </defs>
  <g id="icons" stroke="none" stroke-width="1" fill="none" fill-rule="evenodd">
    <g id="Rectangle-2">
      <use fill="black" fill-opacity="1" filter="url(#filter-4)" xlink:href="#path-3"></use>
      <use stroke="url(#linearGradient-2)" mask="url(#mask-5)" stroke-width="2" fill="url(#linearGradient-1)"
           fill-rule="evenodd" xlink:href="#path-3"></use>
    </g>
  </g>
</svg>